# xmcd
#
# Track frame offsets:
#	150
#	17385
#	41882
#	89480
#
# Disc length: 2174 seconds
# Revision: 0
# Processed by: cddbd v1.5.2PL0 Copyright (c) Steve Scherf et al.
# Submitted via: dBpowerAMP V12.0
#
DISCID=28087c04
DTITLE=Res - Golden Boys
DYEAR=2002
DGENRE=Neo Soul
TTITLE0=Golden Boys [Original Radio Edit]
TTITLE1=Golden Boys [Romain Tranchart Club Edit]
TTITLE2=Golden Boys [95 North Remix]
TTITLE3=DATA
EXTD=
EXTT0=
EXTT1=
EXTT2=
EXTT3=
PLAYORDER=
